# xmcd CD database file
#
# Track frame offsets:
#	150
#	43962
#	86588
#	120443
#	155089
#	176259
#	208588
#	224412
#	231317
#	233957
#	243993
#	253317
#	258107
#	273492
#	279264
#	288331
#	294150
#	300677
#	316497
#	334591
#
# Disc length: 4608 seconds
#
# Revision: 2
# Processed by: cddbd v1.5.2PL0 Copyright (c) Steve Scherf et al.
# Submitted via: CDex 1.51
#
DISCID=2911fe14
DTITLE=Saint-Saëns - Symphonie N°3 Op.78 - Carnaval des Animaux - ...
DYEAR=1900
DGENRE=Classique
TTITLE0=Symphonie N°3 en ut mineur Op.78 ''avec orgue'' - I. Adagio - Allegro moderato
TTITLE1=Symphonie N°3 - II. Poco adagio   [Charles Munch, Boston Symphony Orchestra]
TTITLE2=Symphonie N°3 - III. Allegro moderato   [Berj Zamkochian, orgue]
TTITLE3=Symphonie N°3 - IV. Maestoso - Allegro
TTITLE4=Marche Militaire Française de la Suite Algérienne Op.60  [Eugène Ormandy, Philadelphia Orchestra]
TTITLE5=Danse Macabre Op.40
TTITLE6=Le Carnaval des Animaux - I. Introduction et marche royale du Lion    [Leonard Bernstein ...]
TTITLE7=Le Carnaval des Animaux - II. Poules et Coqs    [... New York Philharmonic.]
TTITLE8=Le Carnaval des Animaux - III. Hémiones
TTITLE9=Le Carnaval des Animaux - IV. Tortues
TTITLE10=Le Carnaval des Animaux - V. L' Éléphant
TTITLE11=Le Carnaval des Animaux - VI. Kangourous
TTITLE12=Le Carnaval des Animaux - VII. Aquarium
TTITLE13=Le Carnaval des Animaux - VIII. Personnages aux longues oreilles
TTITLE14=Le Carnaval des Animaux - IX. Le Coucou au fond des bois
TTITLE15=Le Carnaval des Animaux - X. Volière
TTITLE16=Le Carnaval des Animaux - XI. Pianistes
TTITLE17=Le Carnaval des Animaux - XII. Fossiles
TTITLE18=Le Carnaval des Animaux - XIII. Le Cygne
TTITLE19=Le Carnaval des Animaux - XIV. Final
EXTD=
EXTT0=
EXTT1=
EXTT2=
EXTT3=
EXTT4=
EXTT5=
EXTT6=
EXTT7=
EXTT8=
EXTT9=
EXTT10=
EXTT11=
EXTT12=
EXTT13=
EXTT14=
EXTT15=
EXTT16=
EXTT17=
EXTT18=
EXTT19=
PLAYORDER=
